<svg xmlns="http://www.w3.org/2000/svg" viewBox="0 0 114.75 159.91"><defs><style>.cls-1{fill:#a3d8dc;}.cls-2{fill:#72b9bd;}.cls-3{fill:#fdfdfd;}</style></defs><title>Education</title><g id="Layer_2" data-name="Layer 2"><g id="Layer_1-2" data-name="Layer 1"><path class="cls-1" d="M87,118.09c0,10.49,0,21-.12,31.47,0,6.88-3.53,10.34-10.39,10.34H11.05c-7.36,0-11-3.57-11-11Q0,80,0,11C0,3.57,3.7,0,11.06,0H77c6.17,0,9.83,3.61,9.88,9.84.1,10.66.09,21.32.12,32-2.9-.29-5.21,1.46-7.79,2.28-.1-7.48-.29-15-.27-22.44,0-4-1.7-5.71-5.71-5.69q-29.18.1-58.37,0c-4.22,0-6,1.66-6,5.93Q8.91,80,8.83,138.2c0,4,1.64,5.75,5.67,5.74q29.43-.1,58.87,0c3.72,0,5.56-1.57,5.5-5.37-.11-6.82-.13-13.64-.18-20.46Z"/><path class="cls-2" d="M87,118.09H78.69c-4.31,0-8.61,0-12.91-.15-5.11-.13-7.91-2.9-8-8Q57.65,100,57.8,90c.07-5.12,2.88-7.93,8-8.08,4.31-.13,8.61-.11,12.92-.16l8.26,0c4.73,1,7,3.84,6.85,8.74q-.18,9.39,0,18.79C93.9,114.24,91.69,117.1,87,118.09ZM65.88,100c-.55,3.93,1.74,7,5.06,9.17,3.57,2.34,7.58,2.25,11.41.34,1.73-.87,3.17-2.39,2.22-4.42s-2.74-1.16-4.18-.22c-2.92,1.9-5.41,1.23-7.39-1.38a5.51,5.51,0,0,1,.11-7.32c2.08-2.57,4.58-3.1,7.43-1.11,1.31.92,3,1.54,3.93-.06,1.13-1.93-.13-3.66-1.85-4.54-3.58-1.82-7.2-2.18-10.93,0C68.11,92.55,65.77,95.23,65.88,100Z"/><path class="cls-2" d="M79.17,44.1c2.57-.82,4.88-2.57,7.78-2.28,6.46,0,12.92.06,19.38.15,5.33.07,8.21,2.85,8.32,8.27q.19,9.7,0,19.4c-.11,5.57-3.06,8.27-8.8,8.33-6.3.08-12.59.09-18.89.14-3.34.66-5.18-2.31-7.85-3.27A104.18,104.18,0,0,1,79.17,44.1Zm7.69,15.45c0,12,.48,12.48,12.5,11.37.17,0,.33,0,.5,0,5.27-.7,7.34-4.37,5-9.24-.59-1.24-1.09-2.17-.62-3.65,2.06-6.56.22-9-6.79-9C85.37,49,87,47.78,86.86,59.55Z"/><path class="cls-1" d="M79.11,74.84c2.67,1,4.51,3.93,7.85,3.27,0,1.24,0,2.48,0,3.71l-8.26,0Z"/><path class="cls-3" d="M79.11,74.84l-.42,6.94c-4.31,0-8.61,0-12.92.16-5.09.15-7.9,3-8,8.08q-.15,9.95,0,19.89c.07,5.14,2.87,7.91,8,8,4.3.11,8.6.1,12.91.15,0,6.82.07,13.64.18,20.46.06,3.8-1.78,5.38-5.5,5.37q-29.45-.08-58.87,0c-4,0-5.68-1.76-5.67-5.74Q8.91,80,8.82,21.89c0-4.27,1.77-6,6-5.93Q44,16.1,73.18,16c4,0,5.73,1.68,5.71,5.69,0,7.48.17,15,.27,22.44A104.52,104.52,0,0,0,79.11,74.84ZM36.92,59.61c0,3.5-.09,7,0,10.5.15,4.86,2.93,7.75,7.77,7.84,6.82.13,13.65.14,20.47,0,4.83-.1,7.6-3,7.67-7.92.09-6.82.11-13.66,0-20.48-.09-4.61-2.9-7.47-7.49-7.56-7-.13-14-.14-21,0-4.52.09-7.27,3-7.44,7.63C36.82,53,36.92,56.28,36.92,59.61Z"/><path class="cls-1" d="M65.88,100c-.11-4.81,2.23-7.49,5.81-9.57,3.73-2.15,7.35-1.79,10.93,0,1.72.88,3,2.61,1.85,4.54-.93,1.6-2.62,1-3.93.06-2.85-2-5.35-1.46-7.43,1.11a5.51,5.51,0,0,0-.11,7.32c2,2.61,4.47,3.28,7.39,1.38,1.44-.94,3.19-1.92,4.18.22s-.49,3.55-2.22,4.42c-3.83,1.91-7.84,2-11.41-.34C67.62,107.05,65.33,104,65.88,100Z"/><path class="cls-1" d="M86.86,59.55C87,47.78,85.37,49,97.49,49c7,0,8.85,2.44,6.79,9-.47,1.48,0,2.41.62,3.65,2.3,4.87.23,8.54-5,9.24-.17,0-.33,0-.5,0C87.34,72,86.86,71.6,86.86,59.55ZM96.38,62c-1.33.18-3.2-.44-3.4,1.78s1.5,2.25,3,2.18,3.66.58,3.7-2C99.72,61.73,97.84,62.1,96.38,62Zm-.19-8c-1.56.08-3.34-.14-3.21,2.11s2,1.81,3.37,1.84c1.59,0,3.25-.35,3.2-2.26C99.48,53.33,97.42,54.19,96.19,53.94Z"/><path class="cls-2" d="M36.92,59.61c0-3.33-.1-6.66,0-10,.17-4.63,2.92-7.54,7.44-7.63,7-.15,14-.14,21,0,4.59.09,7.4,3,7.49,7.56.12,6.82.1,13.66,0,20.48-.07,4.91-2.84,7.82-7.67,7.92-6.82.15-13.65.14-20.47,0-4.84-.09-7.62-3-7.77-7.84C36.83,66.61,36.92,63.11,36.92,59.61ZM54.68,67c2.18,0,4.07-.24,5.13,1.82.74,1.44,1.8,2.58,3.54,1.74s1.89-2.79,1.34-4.34A126.43,126.43,0,0,0,59.08,51.9c-1.88-3.77-6-4.09-7.89-.52C48.6,56.31,46.9,61.71,45,67a2.78,2.78,0,0,0,1.26,3.48,2.23,2.23,0,0,0,3.34-1.08C50.76,66.9,52.82,66.84,54.68,67Z"/><path class="cls-2" d="M96.38,62c1.46.12,3.34-.25,3.31,2,0,2.57-2.18,1.92-3.7,2s-3.22,0-3-2.18S95.05,62.16,96.38,62Z"/><path class="cls-2" d="M96.19,53.94c1.23.25,3.29-.61,3.36,1.69,0,1.91-1.61,2.29-3.2,2.26-1.41,0-3.25.39-3.37-1.84S94.63,54,96.19,53.94Z"/><path class="cls-1" d="M54.68,67c-1.86-.13-3.92-.07-5.09,2.4a2.23,2.23,0,0,1-3.34,1.08A2.78,2.78,0,0,1,45,67c1.91-5.26,3.61-10.66,6.2-15.59,1.88-3.57,6-3.25,7.89.52a126.43,126.43,0,0,1,5.61,14.29c.55,1.55.54,3.45-1.34,4.34s-2.8-.3-3.54-1.74C58.75,66.73,56.86,67,54.68,67Zm-.3-11.7c-.21,3-2.56,4.55-.44,6.43a2.26,2.26,0,0,0,2.22-.24C57.63,59.47,56.4,57.9,54.38,55.27Z"/><path class="cls-2" d="M54.38,55.27c2,2.63,3.25,4.2,1.78,6.19a2.26,2.26,0,0,1-2.22.24C51.82,59.82,54.17,58.25,54.38,55.27Z"/></g></g></svg>