<svg xmlns="http://www.w3.org/2000/svg" viewBox="0 0 143.93 112"><defs><style>.cls-1{fill:#99cdd0;}.cls-2{fill:#fcfdfd;}.cls-3{fill:#bfe3e6;}.cls-4{fill:#c1e4e7;}</style></defs><title>Reading</title><g id="Layer_2" data-name="Layer 2"><g id="Layer_1-2" data-name="Layer 1"><path class="cls-1" d="M71.26,6.34C74.19,1.21,77.91,0,82.68,0c17,.19,34,.06,51,.08,7.64,0,10.27,2.59,10.27,10.1q0,46,0,91.93c0,7.19-2.72,9.87-10,9.88Q72,112,10,112c-7.28,0-10-2.69-10-9.88Q0,55.9,0,9.69C0,2.84,2.82.1,9.78.09c16.49,0,33,.1,49.46-.08C64.24,0,68.55.59,71.26,6.34Zm65.37,87.42q.13-39.44.24-78.88c0-3.84-2.27-5.82-6-5.83-17.64-.06-35.3-.39-52.92.23-4.37.15-8.52.35-13,.12C47.72,8.48,30.38,9,13.07,9.05c-3.74,0-6,2-6,5.83q.06,39.44.24,78.88C6.41,103.92,7.39,105,17.64,105H60q34.64,0,69.27,0c5.94,0,7.68-1.81,7.62-7.75C136.88,96.07,136.72,94.92,136.63,93.76Z"/><path class="cls-2" d="M7.3,93.76q-.13-39.44-.24-78.88c0-3.84,2.27-5.82,6-5.83C30.38,9,47.72,8.48,65,9.4c4.44.23,8.59,0,13-.12,17.62-.62,35.28-.29,52.92-.23,3.74,0,6,2,6,5.83q-.06,39.44-.24,78.88a15,15,0,0,1-7.24,1.33c-13.78,0-27.56.06-41.35-.06C81.5,95,75,94.57,71.25,102.35c-3-6.29-7.51-7.39-12.87-7.33-14.61.14-29.23,0-43.84.07A14.83,14.83,0,0,1,7.3,93.76ZM39.37,32c6.49,0,13,0,19.46,0,2.65,0,4.82-.9,4.92-3.76.1-3.17-2.16-4.16-5-4.16q-19.21,0-38.43,0c-2.81,0-5.19.82-5.16,4S17.63,32,20.41,32C26.73,32,33.05,32,39.37,32Zm65.07,0c6.16,0,12.32-.09,18.48,0,3.08.06,5.6-.74,5.52-4.14-.06-3-2.4-3.88-5.31-3.85-12.49.09-25,.05-37.46,0-3,0-5.67.58-5.55,4.11S83.1,32,86,32C92.12,32,98.28,32,104.44,32ZM39.53,48c6,0,12,0,18,0,2.76,0,6,.06,6.11-3.47s-2.8-4.48-6-4.48q-18.48,0-37,0c-3,0-5.62.66-5.54,4.17.08,3.21,2.64,3.81,5.39,3.79C26.87,48,33.2,48,39.53,48Zm65,0c6,0,12-.08,17.94,0,2.91,0,5.82-.31,5.93-3.71.13-3.74-3-4.26-6-4.27-12.3,0-24.6,0-36.9,0-2.75,0-5.27.63-5.39,3.79C80,47.4,82.65,48.05,85.6,48,91.92,48,98.23,48,104.55,48ZM39,57c-6.15,0-12.3,0-18.44,0-2.43,0-5.56-.51-5.43,3.28.11,3.19,2.64,3.79,5.4,3.78q18.93,0,37.88,0c2.64,0,4.68-.54,4.56-3.78-.12-3-2.19-3.3-4.53-3.29Zm65,0H84.66c-2.26,0-4.62.09-4.58,3.16,0,2.59,1.8,3.85,4.28,3.86q19.64.06,39.29,0c2.29,0,4.34-.77,4.29-3.69S125.8,57,123.46,57ZM91.56,80c2.81,0,5.62,0,8.43,0,2.29,0,3.86-.8,3.93-3.38S102.73,73,100.3,73c-5.62,0-11.24,0-16.87,0C81.26,73,80,74.11,80,76.35c0,2.46,1.21,3.66,3.63,3.67C86.27,80,88.91,80,91.56,80ZM27.19,73v0H19.25c-2.17,0-4.15.4-4.14,3.1a3.62,3.62,0,0,0,3.74,3.85c5.62.15,11.25.1,16.88,0C38,80,39,78.63,39,76.46s-1.13-3.4-3.34-3.43C32.83,73,30,73,27.19,73Z"/><path class="cls-3" d="M7.3,93.76a14.83,14.83,0,0,0,7.24,1.33c14.61,0,29.23.07,43.84-.07,5.36-.06,9.88,1,12.87,7.33C75,94.57,81.5,95,88,95c13.79.12,27.57,0,41.35.06a15,15,0,0,0,7.24-1.33c.09,1.16.25,2.31.26,3.47.06,5.94-1.68,7.74-7.62,7.75Q94.64,105,60,105H17.64C7.39,105,6.41,103.92,7.3,93.76Z"/><path class="cls-4" d="M39.37,32c-6.32,0-12.64,0-19,0-2.78,0-5.23-.7-5.27-3.91s2.35-4,5.16-4q19.22,0,38.43,0c2.86,0,5.12,1,5,4.16-.1,2.86-2.27,3.77-4.92,3.76C52.35,32,45.86,32,39.37,32Z"/><path class="cls-4" d="M104.44,32C98.28,32,92.12,32,86,32c-2.86,0-5.73-.28-5.84-3.83s2.6-4.12,5.55-4.11c12.49,0,25,.07,37.46,0,2.91,0,5.25.81,5.31,3.85.08,3.4-2.44,4.2-5.52,4.14C116.76,31.92,110.6,32,104.44,32Z"/><path class="cls-4" d="M39.53,48c-6.33,0-12.66,0-19,0-2.75,0-5.31-.58-5.39-3.79-.08-3.51,2.58-4.18,5.54-4.17q18.48,0,37,0c3.16,0,6.1.93,6,4.48S60.27,48,57.51,48C51.52,48,45.52,48,39.53,48Z"/><path class="cls-4" d="M104.55,48c-6.32,0-12.63,0-19,0-2.95,0-5.62-.63-5.49-4.17.12-3.16,2.64-3.8,5.39-3.79,12.3,0,24.6,0,36.9,0,3,0,6.15.53,6,4.27-.11,3.4-3,3.76-5.93,3.71C116.51,48,110.53,48,104.55,48Z"/><path class="cls-3" d="M39,57H58.46c2.34,0,4.41.27,4.53,3.29C63.11,63.5,61.07,64,58.43,64q-18.94,0-37.88,0c-2.76,0-5.29-.59-5.4-3.78C15,56.47,18.15,57,20.58,57,26.72,56.94,32.87,57,39,57Z"/><path class="cls-3" d="M104.06,57h19.4c2.34,0,4.42.3,4.48,3.31s-2,3.68-4.29,3.69q-19.65.11-39.29,0c-2.48,0-4.24-1.27-4.28-3.86C80,57.06,82.4,57,84.66,57Z"/><path class="cls-3" d="M91.56,80H83.62c-2.42,0-3.68-1.21-3.63-3.67C80,74.11,81.26,73,83.43,73c5.63,0,11.25,0,16.87,0,2.43,0,3.69,1.17,3.62,3.65S102.28,80.05,100,80Z"/><path class="cls-3" d="M27.19,73c2.82,0,5.64,0,8.45,0,2.21,0,3.34,1.21,3.34,3.43S38,80,35.73,80c-5.63.05-11.26.1-16.88,0a3.62,3.62,0,0,1-3.74-3.85c0-2.7,2-3.1,4.14-3.1h7.94Z"/></g></g></svg>