<svg xmlns="http://www.w3.org/2000/svg" viewBox="0 0 77.89 109.87"><defs><style>.cls-1{fill:#71b6ba;}.cls-2{fill:#fcfdfd;}.cls-3{fill:#72b8bb;}.cls-4{fill:#abd7db;}.cls-5{fill:#a0d6da;}</style></defs><title>Asset 2</title><g id="Layer_2" data-name="Layer 2"><g id="Layer_1-2" data-name="Layer 1"><path class="cls-1" d="M8.9,102.05C3.3,99.41.09,95,.07,88.83Q0,52.92.09,17C.14,7.22,7.51.13,17.25.11,35.54.08,53.84.23,72.14,0c4.25,0,5.79,1,5.75,5.47q-.31,32.91,0,65.83C77.92,75.17,76.56,76,73,76c-18.13-.15-36.26-.08-54.39,0-1.95,0-4-.46-5.77,1-4.69.92-6.95,4.33-7.76,8.51-1,5.37,1.39,9.51,5.87,12.5C12.43,100.35,12.28,102,8.9,102.05ZM42.3,22c6.14,0,12.29,0,18.43,0,5.63-.05,8.1-2.06,8.12-6.44s-2.43-6.47-8-6.5Q42.12,9,23.44,9.09c-4.68,0-8.46,3.05-8.34,6.61S18.76,22,23.37,22C29.68,22.1,36,22,42.3,22Z"/><path class="cls-2" d="M10.92,97.9c-4.48-3-6.91-7.13-5.87-12.5.81-4.18,3.07-7.59,7.76-8.51,19.53,0,39.06.18,58.59,0,4.41-.05,5.84,1.24,5.55,5.61-.37,5.43-.11,10.91-.12,16.37H18.92c0-2,0-3.94-.05-5.9-.09-2.32.77-5.07-3.3-5.13-3.89-.06-3.65,2.34-3.57,4.88A8.13,8.13,0,0,1,10.92,97.9Z"/><path class="cls-3" d="M18.92,98.86H76.83c2.69,5.13-1.51,3.86-3.94,4.23H22l-1.11,0H18.92Z"/><path class="cls-4" d="M18.92,98.86v4.25c0,1.16,0,2.32-.06,3.49a3,3,0,0,1-3,3.25c-2,.19-3.38-.88-3.58-2.66a6.64,6.64,0,0,0-3.37-5.14c3.38-.07,3.53-1.7,2-4.15A8.13,8.13,0,0,0,12,92.71c-.08-2.54-.32-4.94,3.57-4.88,4.07.06,3.21,2.81,3.3,5.13C18.94,94.92,18.91,96.89,18.92,98.86Z"/><path class="cls-4" d="M68.81,103.08h4.08A2.94,2.94,0,0,1,68.81,103.08Z"/><path class="cls-4" d="M20.86,103.1l1.11,0A.65.65,0,0,1,20.86,103.1Z"/><path class="cls-5" d="M42.3,22c-6.31,0-12.62.06-18.93,0-4.61-.06-8.15-2.87-8.27-6.31s3.66-6.6,8.34-6.61q18.69,0,37.37,0c5.61,0,8.07,2.09,8,6.5S66.36,22,60.73,22C54.59,22.08,48.44,22,42.3,22Z"/></g></g></svg>