<svg xmlns="http://www.w3.org/2000/svg" viewBox="0 0 144.34 100.95"><defs><style>.cls-1{fill:#d0beee;}.cls-2{fill:#a47fdf;}</style></defs><title>Meditation</title><g id="Layer_2" data-name="Layer 2"><g id="Layer_1-2" data-name="Layer 1"><path class="cls-1" d="M73.37,100.93l-2.19,0c.09-1.3-.72-2.13-1.53-3A65.09,65.09,0,0,1,51.26,52.72a9.22,9.22,0,0,0-2-5.41c4-2.65,2.07-7.05,2.73-10.49,2.54-13.39,8.77-24.72,17.45-35C71.29-.36,72.81-.78,75,1.64,85,12.94,91.34,25.9,93.24,40.91c.29,2.3.4,4.58,2.07,6.4-1.47,3-1.75,6.32-2,9.58-.68,10.22-4,19.54-8.83,28.54C81.48,91.14,76.31,95.22,73.37,100.93Z"/><path class="cls-2" d="M49.23,47.31a9.22,9.22,0,0,1,2,5.41A65.09,65.09,0,0,0,69.65,98c.81.86,1.62,1.69,1.53,3C35,100.79,4.57,73.88.41,38.29c-1-8.93-.68-9.62,8.15-8.91C24.14,30.64,37.6,37,49.23,47.31Z"/><path class="cls-2" d="M73.37,100.93c2.94-5.71,8.11-9.79,11.15-15.5,4.79-9,8.15-18.32,8.83-28.54.21-3.26.49-6.55,2-9.58,12.5-10.92,26.82-17.4,43.64-18.12,4-.18,5.43.84,5.38,5.12-.26,25.15-20,52.56-44.72,61.72A71.65,71.65,0,0,1,73.37,100.93Z"/></g></g></svg>