<svg xmlns="http://www.w3.org/2000/svg" viewBox="0 0 110.14 109.62"><defs><style>.cls-1{fill:#cfafef;}.cls-2{fill:#a86ae7;}.cls-3{fill:#120e3b;}</style></defs><title>Asset 1</title><g id="Layer_2" data-name="Layer 2"><g id="Layer_1-2" data-name="Layer 1"><path class="cls-1" d="M81.56,43.71c4.52,2.61,9.53,1.51,14.12,1.07,9.25-.89,14.82,5.45,14.44,14.5-.61,14.63-.14,29.3-.19,44,0,1.59.48,3.27-1.3,6.38-3.94-4.45-7.59-8.45-11.09-12.57-2-2.36-4.36-3.14-7.44-3.12-16.66.13-33.31.08-50,.06-8.14,0-12-4.11-12.21-12.35-.17-8.47.54-16.94-.44-25.42-.24-2.17.92-4.49,1.43-6.75A15.66,15.66,0,0,1,41,44.86c11.43.21,22.86,0,34.29.08A11.76,11.76,0,0,0,81.56,43.71ZM56.15,66.31C54.34,66.54,53,67.4,53,69.42a2.86,2.86,0,0,0,3.11,3.12,2.78,2.78,0,0,0,2.94-2.77C59.21,67.78,58.05,66.74,56.15,66.31Zm25.31,6.28c1.87-.29,3.12-1.34,3.08-3.21a2.92,2.92,0,0,0-3.18-3,2.88,2.88,0,0,0-3,3.14A3,3,0,0,0,81.46,72.59Zm-12.61,0a3.13,3.13,0,0,0,2.93-3.35,2.86,2.86,0,0,0-3.35-2.86,2.72,2.72,0,0,0-2.66,3A3,3,0,0,0,68.85,72.6Z"/><path class="cls-2" d="M81.56,43.71a11.76,11.76,0,0,1-6.24,1.23c-11.43,0-22.86.13-34.29-.08a15.66,15.66,0,0,0-12.11,4.61L27,49.39c-3.38-.28-6.8-1.09-10.1.48C12,52,9.32,56.66,5.54,60.07,4,61.47,3.07,63.55,1.86,65.32L0,64.16V55.47Q0,34.26,0,13.05C0,4,4,0,13.18,0q27.2,0,54.4,0C78.37,0,82.47,2.85,82.29,13.47,82.12,23.53,83.94,33.7,81.56,43.71Z"/><path class="cls-1" d="M16.92,49.87c3.3-1.57,6.72-.76,10.1-.48C23.71,50.67,20.3,49.91,16.92,49.87Z"/><path class="cls-3" d="M56.15,66.31c1.9.43,3.06,1.47,2.91,3.46a2.78,2.78,0,0,1-2.94,2.77A2.86,2.86,0,0,1,53,69.42C53,67.4,54.34,66.54,56.15,66.31Z"/><path class="cls-3" d="M81.46,72.59a3,3,0,0,1-3.12-3.07,2.88,2.88,0,0,1,3-3.14,2.92,2.92,0,0,1,3.18,3C84.58,71.25,83.33,72.3,81.46,72.59Z"/><path class="cls-3" d="M68.85,72.6a3,3,0,0,1-3.08-3.21,2.72,2.72,0,0,1,2.66-3,2.86,2.86,0,0,1,3.35,2.86A3.13,3.13,0,0,1,68.85,72.6Z"/></g></g></svg>