<svg xmlns="http://www.w3.org/2000/svg" viewBox="0 0 159.96 144.48"><defs><style>.cls-1{fill:#7f48d2;}.cls-2{fill:#d0beee;}</style></defs><title>Spirituality</title><g id="Layer_2" data-name="Layer 2"><g id="Layer_1-2" data-name="Layer 1"><path class="cls-1" d="M0,101.68C0,90.24,0,78.79,0,67.35c0-6.52,2.9-9.51,9.36-9.52q30.72-.07,61.46,0c6.47,0,9.18,2.6,9.2,9q.11,34.85,0,69.67c0,6.22-1.93,7.95-8.06,7.95q-32.22,0-64.45,0C2,144.47.08,142.64,0,137,0,125.24,0,113.46,0,101.68Z"/><path class="cls-1" d="M160,97.12q0,19.63,0,39.26c0,6.63-1.53,8.09-8.24,8.09q-24.21,0-48.41,0c-5.41,0-7.35-1.67-7.36-7q-.14-40.5,0-81c0-5.49,2.82-8.39,8.28-8.43q23.72-.2,47.41,0c5.68,0,8.3,3,8.32,8.84C160,70.29,160,83.71,160,97.12Z"/><path class="cls-2" d="M128,40c-10.26,0-16.13-8-13-17.69,2.32-7.12,6.06-13.55,9.87-19.94,1.7-2.84,3.67-3.35,5.68-.31,4.66,7,8.94,14.34,11.11,22.57C143.69,32.34,136.71,40,128,40Z"/><path class="cls-2" d="M39.6,49.94c-8.93-.18-15.61-9.2-12.8-17.6a85.92,85.92,0,0,1,10-19.82c2.29-3.5,4.2-3.41,6.61.26A89.52,89.52,0,0,1,53,31.68,13.73,13.73,0,0,1,39.6,49.94Z"/></g></g></svg>