<svg xmlns="http://www.w3.org/2000/svg" viewBox="0 0 720.96 134.22"><defs><style>.cls-1{fill:#4b2eb8;}.cls-2{fill:#c059f6;}</style></defs><title>Asset 1</title><g id="Layer_2" data-name="Layer 2"><g id="Layer_1-2" data-name="Layer 1"><path class="cls-1" d="M225.2,78.71c13.22,7.31,14.05,14.57,12.24,32.52-1.29,12.88-9.06,19.78-22,21.19-11.27,1.24-22.61.69-33.91.37-5.86-.17-7.56-2.43-7.56-8.17q0-41.91,0-83.83c0-5.82,1.78-7.65,7.79-7.71,9.32-.1,18.65-.06,28,0,13.12,0,21.26,4.8,24.43,14.18C238.2,59.2,235,70.87,225.2,78.71Zm-33.39,22.65c0,16.74,0,16.74,16.17,15.6.33,0,.66,0,1-.07,5.77-.75,9.42-3.94,10.58-9.66a29.38,29.38,0,0,0-.05-12.35c-1.24-5.53-4.28-8.33-10-8.79-4.79-.38-9.62-.16-14.43-.35-2.74-.11-3.38,1.26-3.31,3.67C191.9,93.39,191.82,97.37,191.81,101.36Zm0-41.18c0,2.66.06,5.33,0,8-.07,2.17.53,3.51,3,3.43,4.66-.15,9.33,0,14-.32,4.33-.26,6.94-2.89,8.15-6.94,2.72-9.16-2-15.45-11.59-15.55C191.81,48.64,191.81,48.64,191.82,60.18Z"/><path class="cls-1" d="M559.38,75.49c6.93-13.06,13.57-25.33,20-37.73,2-3.87,4.71-5.22,8.87-4.61,8.46,1.23,10.79,5.73,6.58,13-7.79,13.55-15.54,27.13-23.46,40.6a19.82,19.82,0,0,0-2.94,10.84c.19,9,.1,18,0,27,0,5.77-2.62,8.14-8.76,8.26s-9.32-2.53-9.36-8.22c-.06-9.32-.11-18.64,0-28a17.47,17.47,0,0,0-2.51-9.44c-8.18-13.9-16.21-27.89-24.28-41.86-3.12-5.4-2.7-7.72,1.81-10.34,5.83-3.38,11.26-2.64,13.8,2.11C545.8,49.6,552.34,62.11,559.38,75.49Z"/><path class="cls-1" d="M446.77,105c-4.5,0-9,.14-13.49,0-3.09-.13-3.66,1.21-3.21,3.91,1.18,7,9,12,17.28,10.9a33.71,33.71,0,0,0,11.27-3.85c3.77-2,7-1.71,9.4,2.28s1.63,7-2.24,9.94c-12.3,9.5-36.26,7.33-47-4.26-12.72-13.72-8.53-43.37,7.46-52.86,10.94-6.49,25.93-5.27,35.51,3a23.4,23.4,0,0,1,8.37,21.35c-.73,6.79-3.46,9.35-10.36,9.63-4.32.17-8.66,0-13,0ZM440.9,94.31h8c4.39-.22,5.6-1.93,4.12-6.11-1.73-4.87-5.7-6.68-10.48-7-5.47-.34-10.17,2.31-11.9,6.47-2,4.87-.91,6.59,4.31,6.62Z"/><path class="cls-1" d="M649.85,99.75c0,19.23-8.68,30.94-24.51,33.84-20,3.66-36.57-14.17-34.71-28.7a44.18,44.18,0,0,0,0-9.48c-1.23-13.83,11.65-26.69,25.17-28.19,15.75-1.75,30,7.51,33.46,21.45C650.25,92.63,649.57,96.63,649.85,99.75Zm-41.35.64h.08a62.29,62.29,0,0,0,0,7c.69,6.17,6,10.88,11.76,10.77A12.2,12.2,0,0,0,631.87,107a105.89,105.89,0,0,0,0-13,11.7,11.7,0,0,0-23.37-.15C608.33,96.05,608.5,98.22,608.5,100.39Z"/><path class="cls-1" d="M281,134c-6.77,0-13.27-1.17-19.19-4.6-7.13-4.12-12.05-9.94-13.3-18.31a71.08,71.08,0,0,1-.11-20.9c1.67-11.31,11.18-20.33,23.09-22.7,12.35-2.45,25,2.5,31.16,12.15,3.59,5.67,4.14,11.91,3.06,18.29-.79,4.66-4.43,7-10.65,7-8.33.11-16.67.21-25,0-4.33-.14-4.68,1.85-3.77,5.17,1.76,6.35,9,10.52,16.76,9.71,4.24-.45,8-2.19,11.75-4s6.79-1.52,9,2.23,1.63,6.89-1.7,9.73C297.54,131.69,290,134,281,134Zm-3.84-39.69c2.31,0,4.63,0,6.94,0,4.87-.1,6.28-2.06,4.75-6.49-1.46-4.2-6.55-7-12.21-6.61-5,.3-9.57,3.54-10.47,7.69-.69,3.21-.7,6,4,5.47A59.64,59.64,0,0,1,277.16,94.31Z"/><path class="cls-1" d="M720.83,91.68c0,4.49,0,9,0,13.47,0,16.11-13,28.8-29.36,28.83-16.91,0-29.76-12.39-29.79-28.84,0-9.81,0-19.62,0-29.44,0-5.15,3-7.85,8.56-8s9.12,2.82,9.15,8c.06,9.48,0,19,0,28.44.07,8.25,4.88,13.89,11.75,14s11.74-5.62,11.78-13.86c.06-9.48,0-19,0-28.44,0-5.44,2.91-8.16,8.92-8.07,5.22.07,9.5,2,9,8C720.5,81,720.83,86.36,720.83,91.68Z"/><path class="cls-1" d="M366.34,82.11c0-13.07,0-23.55,0-34,0-5.77,2.9-8.14,9.41-8,6.09.11,8.29,2.17,8.31,7.85,0,5.33.12,10.66,0,16-.08,2.86,1.08,3.84,3.82,3.75,3.66-.13,7.33-.15,11,0,4.14.19,6.25,2.81,6,7.45-.19,3.78-1.28,7-6,6.91a12.51,12.51,0,0,0-1.5,0c-4.25.36-9.76-1.9-12.43,1s-.68,8.28-.8,12.57-.13,8.65,0,13c.21,6.55,2,8.22,8.44,8.35,1.5,0,3,0,4.5,0,4.63.26,7.45,3,7.68,7.47s-2.32,7.79-6.91,8.23c-6.83.65-13.65.27-20.11-2.39-6.64-2.72-10.22-7.89-10.91-14.89C365.64,103.49,366.71,91.49,366.34,82.11Z"/><path class="cls-1" d="M317.76,80c0-10.8,0-21.61,0-32.42,0-5.25,2.72-7.46,8.84-7.48s9,2.2,9.12,7.31c.12,5.48.14,11,0,16.45-.07,2.76.85,3.94,3.7,3.82,3.49-.15,7,0,10.48,0,4.93,0,6.13,3.14,6.15,7.26,0,4.92-1.76,7-6.24,7.12-3.32.1-6.66.16-10,0-2.86-.15-4.21.6-4.14,3.83.2,8.14.16,16.29,0,24.44-.07,4.41,2.12,6.42,6.26,6.67,2,.13,4,0,6,.07,5.27.23,7.83,2.71,7.94,7.58s-2.34,7.87-7.38,8.24c-6.32.46-12.67.09-18.69-2.15-7.94-2.95-11.74-9.09-11.92-17.29-.24-11.14-.06-22.28-.06-33.42Z"/><path class="cls-1" d="M499.17,77.2c5.18-7.64,11.54-11.09,20-10.18,4.18.45,6.8,3.24,6.86,7.64s-2.43,7.51-6.49,8c-15.42,2-19.64,6.91-19.64,22.71,0,6.48.05,13,0,19.44-.06,5.06-3.5,8-9.27,8-5.59,0-8.69-2.69-8.7-7.85,0-15.95,0-31.91,0-47.87,0-6.85,1.87-9.05,7.95-9.38S498.3,69.67,499.17,77.2Z"/><path class="cls-2" d="M71.8.08c19.32,0,38.63.08,57.94-.08,3.39,0,4.5.72,4.49,4.32-.14,38.44-.07,76.87-.11,115.31,0,8.42-5.5,14.24-13.27,14.34-8,.1-13.68-5.84-13.7-14.52-.05-29.12-.11-58.23.09-87.35,0-4.21-1.11-5.16-5.21-5.13-28.3.19-56.61.11-84.91.07a30.78,30.78,0,0,1-6.44-.52A13.28,13.28,0,0,1,.05,12.3,13.1,13.1,0,0,1,13.37.1C32.84,0,52.32.08,71.8.08Z"/><path class="cls-2" d="M45.57,53.36c10.32,0,20.65.1,31-.06,3.08,0,4.39.54,4.36,4-.16,20.63,0,41.27-.1,61.9,0,7.23-3.2,12-9,14.15a13.61,13.61,0,0,1-14.64-3.49,13,13,0,0,1-3.4-9.11c.07-11.65-.3-23.31.19-34.94.19-4.59-1.62-5.22-5.24-5.18-7.83.08-15.66.06-23.48,0-3.83,0-7.65-.19-11.47-.32-8-.28-13.72-6-13.62-13.55s6-13.3,13.92-13.4C24.58,53.26,35.08,53.36,45.57,53.36Z"/><path class="cls-2" d="M27,120.43c.05,7.93-5.42,13.64-13.14,13.7A13.57,13.57,0,0,1,13.54,107C21.28,106.94,27,112.6,27,120.43Z"/></g></g></svg>