<svg xmlns="http://www.w3.org/2000/svg" viewBox="0 0 134.23 134.22"><defs><style>.cls-1{fill:#c059f6;}</style></defs><title>Asset 2</title><g id="Layer_2" data-name="Layer 2"><g id="Layer_1-2" data-name="Layer 1"><path class="cls-1" d="M71.8.08c19.32,0,38.63.08,57.94-.08,3.39,0,4.5.72,4.49,4.32-.14,38.44-.07,76.87-.11,115.31,0,8.42-5.5,14.24-13.27,14.34-8,.1-13.68-5.84-13.7-14.52-.05-29.12-.11-58.23.09-87.35,0-4.21-1.11-5.16-5.21-5.13-28.3.19-56.61.11-84.91.07a30.78,30.78,0,0,1-6.44-.52A13.28,13.28,0,0,1,.05,12.3,13.1,13.1,0,0,1,13.37.1C32.84,0,52.32.08,71.8.08Z"/><path class="cls-1" d="M45.57,53.36c10.32,0,20.65.1,31-.06,3.08,0,4.39.54,4.36,4-.16,20.63,0,41.27-.1,61.9,0,7.23-3.2,12-9,14.15a13.61,13.61,0,0,1-14.64-3.49,13,13,0,0,1-3.4-9.11c.07-11.65-.3-23.31.19-34.94.19-4.59-1.62-5.22-5.24-5.18-7.83.08-15.66.06-23.48,0-3.83,0-7.65-.19-11.47-.32-8-.28-13.72-6-13.62-13.55s6-13.3,13.92-13.4C24.58,53.26,35.08,53.36,45.57,53.36Z"/><path class="cls-1" d="M27,120.43c.05,7.93-5.42,13.64-13.14,13.7A13.57,13.57,0,0,1,13.54,107C21.28,106.94,27,112.6,27,120.43Z"/></g></g></svg>